<?xml version="1.0" standalone="no"?>
<!DOCTYPE svg PUBLIC "-//W3C//DTD SVG 20010904//EN"
 "http://www.w3.org/TR/2001/REC-SVG-20010904/DTD/svg10.dtd">
<svg version="1.0" xmlns="http://www.w3.org/2000/svg" height="100%" width="100%" 
 viewBox="0 0 2732.000000 2048.000000"
 preserveAspectRatio="xMidYMid meet">

<g transform="translate(0.000000,2048.000000) scale(0.100000,-0.100000)"
fill="#fff6e2" stroke="none">
<path d="M11759 18615 c-3 -2 -65 -5 -139 -6 -224 -2 -640 -28 -970 -60 -494
-48 -930 -116 -1475 -229 -160 -33 -531 -131 -730 -191 -207 -63 -544 -180
-630 -219 -11 -5 -69 -29 -130 -53 -339 -137 -651 -302 -1000 -528 -82 -53
-222 -141 -310 -194 -1826 -1115 -3160 -2819 -3721 -4753 -217 -749 -315
-1487 -301 -2257 6 -326 14 -446 48 -740 195 -1701 962 -3311 2203 -4625 134
-141 160 -168 341 -340 814 -775 1828 -1425 2926 -1874 1037 -424 2159 -673
3314 -736 244 -13 806 -13 1050 0 2379 130 4545 1041 6180 2600 224 213 237
224 475 373 207 129 338 175 530 184 186 9 263 -6 407 -77 112 -55 130 -68
225 -163 170 -168 219 -241 263 -392 44 -152 34 -364 -40 -815 -74 -458 23
-848 306 -1225 95 -126 245 -283 341 -355 373 -282 892 -315 1465 -94 753 290
1540 984 2156 1901 241 359 533 893 680 1243 36 85 100 231 142 324 299 664
485 1363 561 2116 21 211 30 825 15 1056 -92 1415 -587 2798 -1472 4114 -754
1121 -1772 2151 -2989 3022 -843 603 -1740 1107 -2765 1555 -132 57 -273 120
-313 139 -40 19 -75 34 -77 34 -2 0 -36 15 -77 34 -40 18 -122 54 -183 80 -60
26 -119 51 -130 56 -79 36 -456 179 -655 248 -267 93 -680 220 -930 287 -30 8
-86 23 -125 34 -61 17 -220 56 -430 106 -585 138 -1421 277 -2030 336 -55 5
-116 11 -135 14 -81 9 -581 45 -775 55 -216 11 -1088 23 -1096 15z m3951
-11915 c221 -45 394 -179 460 -355 43 -114 38 -294 -12 -439 -31 -90 -109
-241 -169 -326 -67 -95 -240 -274 -344 -355 -250 -196 -539 -333 -836 -396
-148 -32 -416 -32 -534 -1 -233 63 -383 193 -443 386 -21 68 -21 241 1 323 57
216 164 396 352 592 264 275 640 485 1002 560 130 27 137 28 293 29 99 1 160
-3 230 -18z"/>
</g>
</svg>
