<?xml version="1.0" standalone="no"?>
<!DOCTYPE svg PUBLIC "-//W3C//DTD SVG 20010904//EN"
 "http://www.w3.org/TR/2001/REC-SVG-20010904/DTD/svg10.dtd">
<svg version="1.0" xmlns="http://www.w3.org/2000/svg"
 width="1515.000000pt" height="892.000000pt" viewBox="0 0 1515.000000 892.000000"
 preserveAspectRatio="xMidYMid meet">

<g transform="translate(0.000000,892.000000) scale(0.100000,-0.100000)"
fill="#F9ECCE" stroke="none">
<path d="M5545 8910 c-960 -38 -1821 -213 -2507 -509 -171 -74 -615 -292 -725
-357 -387 -226 -733 -537 -976 -874 -34 -47 -107 -134 -163 -195 -355 -381
-553 -673 -767 -1130 -292 -622 -410 -1146 -394 -1760 11 -442 77 -768 255
-1277 132 -374 202 -536 322 -743 367 -637 901 -1078 1595 -1315 61 -21 174
-68 252 -104 724 -334 1594 -555 2438 -620 640 -49 1192 -17 1790 104 105 21
273 55 375 75 462 91 906 227 1290 397 260 114 379 186 709 427 396 289 560
386 775 456 256 84 440 116 656 116 311 1 553 -88 745 -272 125 -120 172 -227
195 -442 6 -56 15 -142 20 -192 5 -49 17 -117 25 -150 17 -66 92 -235 132
-297 60 -96 176 -174 293 -197 309 -60 473 -56 756 19 61 16 146 42 190 58 43
16 142 50 219 75 1005 325 1828 1255 2040 2301 59 291 73 639 35 862 -268
1556 -1163 2842 -2622 3768 -756 479 -1676 872 -2670 1140 -388 105 -574 155
-753 204 -806 222 -1738 374 -2570 421 -263 15 -730 20 -960 11z m3170 -5775
c134 -44 221 -114 274 -219 21 -43 22 -55 16 -136 -10 -125 -43 -191 -143
-290 -62 -61 -98 -86 -187 -132 -185 -93 -326 -131 -495 -132 -124 0 -200 19
-277 70 -180 117 -226 367 -102 549 84 124 239 228 425 284 158 48 354 51 489
6z"/>
</g>
</svg>
